<?xml version="1.0" encoding="utf-8"?>
<!-- Generator: Adobe Illustrator 16.0.0, SVG Export Plug-In . SVG Version: 6.00 Build 0)  -->
<!DOCTYPE svg PUBLIC "-//W3C//DTD SVG 1.1//EN" "http://www.w3.org/Graphics/SVG/1.1/DTD/svg11.dtd">
<svg version="1.1" id="Layer_1" xmlns="http://www.w3.org/2000/svg" xmlns:xlink="http://www.w3.org/1999/xlink" x="0px" y="0px"
	 width="430.825px" height="257.296px" viewBox="0 0 430.825 257.296" enable-background="new 0 0 430.825 257.296"
	 xml:space="preserve">
<g>
	<g>
		<path fill="#227AB8" d="M430.535,75.276c-4.862-3.833-10.192-6.929-16.399-8.651c-3.651,6.184-10.082,9.474-16.515,12.514
			c-4.407,2.082-31.912-1.507-36.475,0.205l-15.877,30.063c5.465-1.732,56.278-11.384,61.592-13.575
			c8.026-3.313,15.372-7.541,21.142-13.744C429.835,80.126,431.516,78.105,430.535,75.276z"/>
	</g>
	<g>
		<path fill="#227AB8" d="M29.033,109.051c-9.962,3.756-19.407,8.316-26.41,16.13c-1.709,1.907-3.218,3.868-2.389,6.54
			c5.009,3.588,10.231,6.838,16.354,8.689c5.125-7.56,13.453-11.338,21.803-14.938c2.697-1.162,5.442-2.221,8.201-3.237
			l-1.097-18.497C39.941,105.311,34.43,107.018,29.033,109.051z"/>
	</g>
	<g>
		<path d="M35.837,59.919H60.06l24.224,52.061l14.052-52.061h25.829l-25.16,93.682H76.254L50.96,99.667l-14.454,53.934H10.677
			L35.837,59.919z"/>
		<path d="M165.785,155.341c-6.691,0-12.781-1.071-18.268-3.212c-5.487-2.142-10.194-5.086-14.119-8.833
			c-3.927-3.747-6.959-8.185-9.101-13.316c-2.141-5.13-3.212-10.684-3.212-16.662c0-7.137,1.382-14.029,4.149-20.677
			c2.765-6.646,6.625-12.513,11.576-17.599c4.952-5.086,10.84-9.167,17.666-12.245c6.825-3.078,14.297-4.617,22.417-4.617
			c6.691,0,12.781,1.07,18.268,3.212c5.487,2.141,10.192,5.085,14.119,8.832c3.926,3.748,6.96,8.188,9.101,13.316
			c2.142,5.132,3.212,10.686,3.212,16.662c0,7.139-1.384,14.031-4.148,20.677c-2.767,6.647-6.625,12.514-11.576,17.599
			c-4.952,5.086-10.841,9.168-17.666,12.246S173.903,155.341,165.785,155.341z M168.079,132.054c4.08,0,7.783-0.891,11.11-2.677
			c3.327-1.783,6.144-4.126,8.45-7.025c2.307-2.898,4.103-6.11,5.391-9.637c1.286-3.523,1.931-7.025,1.931-10.505
			c0-2.944-0.445-5.688-1.332-8.231c-0.887-2.542-2.196-4.751-3.925-6.624c-1.731-1.874-3.86-3.323-6.389-4.35
			c-2.528-1.024-5.433-1.539-8.716-1.539c-4.082,0-7.762,0.893-11.045,2.677c-3.283,1.786-6.1,4.128-8.45,7.026
			c-2.351,2.9-4.17,6.112-5.456,9.636c-1.288,3.525-1.93,7.025-1.93,10.506c0,2.943,0.443,5.688,1.33,8.23
			c0.887,2.542,2.196,4.751,3.927,6.624c1.729,1.874,3.858,3.325,6.386,4.35C161.89,131.542,164.796,132.054,168.079,132.054z"/>
		<path d="M243.807,59.919h24.223l24.224,52.061l14.052-52.061h25.83l-25.16,93.682h-22.752l-25.294-53.934l-14.453,53.934h-25.83
			L243.807,59.919z"/>
		<path d="M345.652,59.919h75.078l-6.021,22.082h-49.25l-3.881,14.187h44.699l-5.487,20.476H356.09l-4.015,14.855h50.053
			l-5.889,22.082h-75.749L345.652,59.919z"/>
	</g>
	<g>
		<path d="M32.281,232.23l-0.535,2.535c-0.214,1-0.75,1.464-1.714,1.464h-4.106c-1.785,0-2.963,1.25-2.963,3.178
			c0,0.786,0.571,1.286,1.678,1.821l3.713,1.785c2.035,0.964,2.928,2.428,2.928,4.713c0,5.82-2.963,9.248-8.355,9.248h-5.213
			c-2.25,0-3.356-0.179-3.356-1.393c0-0.179,0.036-0.393,0.071-0.643l0.75-3.214h0.643c0.071,1.107,0.571,1.429,1.821,1.429h4.178
			c2.713,0,4.427-1.893,4.427-4.392c0-1-0.5-1.607-1.643-2.107l-4.284-1.892c-1.678-0.75-2.393-1.964-2.393-4.07
			c0-5.249,2.642-8.463,7.034-8.463H32.281z"/>
		<path d="M39.746,237.193c0.857,0,1.321,0.429,1.321,1.143c0,0.179-0.036,0.394-0.107,0.643l-2.964,12.426
			c-0.036,0.215-0.071,0.429-0.071,0.607c0,1.035,0.714,1.606,2.142,1.606c2.107,0,3.606-1.035,3.999-2.642l2.856-11.391
			c0.072-0.321,0.107-0.571,0.107-0.75c0-0.606-0.357-0.964-1.071-0.964l0.143-0.679h4.855c0.75,0,1.214,0.465,1.214,1.179
			c0,0.214-0.036,0.464-0.107,0.785l-3.677,15.425c-0.072,0.286-0.107,0.536-0.107,0.75c0,0.536,0.321,0.785,1.107,0.964
			l-0.179,0.679h-5.106c-0.785,0-1.178-0.285-1.178-1c0-0.285,0.107-0.821,0.286-1.643c-1.678,2-3.249,2.964-5.641,2.964
			c-3.428,0-5.177-1.179-5.177-2.999c0-0.286,0.036-0.571,0.107-0.857l3.321-13.782c0.071-0.285,0.071-0.535,0.071-0.75
			c0-0.606-0.429-0.999-1.178-1.035l0.143-0.679H39.746z"/>
		<path d="M66.172,237.193c2.785,0,4.213,1.143,4.213,3.356c0,0.679-0.143,1.25-0.286,1.821l-2.75,11.604
			c-0.107,0.5-0.25,0.928-0.25,1.321c0,0.571,0.393,0.893,1.107,0.999l-0.178,0.679H63.53c-1.178,0-1.714-0.357-1.714-1.214
			c0-0.357,0.107-0.857,0.286-1.571c-1.071,1.464-1.678,2.393-2.143,2.678c-0.464,0.25-1.535,0.429-3.249,0.429
			c-3.213,0-4.82-1.643-4.82-4.713c0-5.249,2.713-8.748,6.641-8.748h4.535c1.357,0,1.964-0.5,1.964-1.856
			c0-0.857-0.428-1.179-1.428-1.179h-4.892c-1.25,0-1.75-0.356-1.75-1.464c0-0.571,0.107-1.285,0.357-2.143H66.172z M56.96,251.262
			c0,1.714,0.928,2.035,3.178,2.035c0.786,0,1.5-0.035,2.178-0.143l1.535-6.178h-3.178C58.317,246.977,56.96,248.655,56.96,251.262z
			"/>
		<path d="M94.491,237.193l-0.607,2.464c-0.25,1-0.857,1.214-2.106,1.214h-2c-1.5,0-2.464,0.536-3.213,1.714
			c-0.25,0.429-0.607,1.25-0.929,2.464c-0.821,2.964-1.392,5.034-1.392,6.32c0,1.143,0.893,1.928,2.499,1.928h2.428
			c1.893,0,2.963-0.5,3.428-1.714l0.714,0.036l-0.785,3.32c-0.357,1.571-1.571,2.035-3.963,2.035h-4.678
			c-3.285,0-4.999-1.464-4.999-4.356c0-0.678,0.107-1.535,0.357-2.606c0.893-3.855,1.643-6.891,2.642-9.033
			c1.143-2.428,3.392-3.785,6.499-3.785H94.491z"/>
		<path d="M95.564,248.405c0.964-4.534,2.035-7.319,2.75-8.284c1.928-2.57,3.999-3.178,7.498-3.178c5.249,0,7.998,1.893,7.998,4.785
			c0,1.82-0.429,3.642-0.928,5.642c-0.536,2.214-1,4.142-1.821,5.784c-1.642,3.32-4.07,4.142-8.426,4.142
			c-4.999,0-7.677-2.035-7.677-5.034C94.958,251.619,95.172,250.298,95.564,248.405z M105.705,240.657c-2,0-2.928,1.071-3.642,3.214
			c-1.357,4.105-1.678,6.748-1.678,7.069c0,1.643,1.071,2.643,2.892,2.643c1.893,0,2.821-1.071,3.535-3.214
			c1.285-3.892,1.678-6.498,1.678-7.177C108.49,241.586,107.49,240.657,105.705,240.657z"/>
		<path d="M129.917,255.189c0,0.714,0.429,1.071,1.25,1.106l-0.107,0.679h-4.892c-0.857,0-1.321-0.464-1.321-1.179
			c0-0.178,0-0.356,0.072-0.606l2.999-12.318c0.072-0.25,0.072-0.5,0.072-0.714c0-1.036-0.714-1.571-2.25-1.571
			c-2.071,0-3.463,1.035-3.856,2.606l-2.75,11.39c-0.071,0.321-0.143,0.571-0.143,0.75c0,0.607,0.429,0.964,1.143,0.964
			l-0.107,0.679h-4.999c-0.75,0-1.214-0.429-1.214-1.179c0-0.214,0.036-0.464,0.107-0.749l3.678-15.461
			c0.071-0.321,0.107-0.571,0.107-0.75c0-0.535-0.393-0.821-1.143-0.964l0.214-0.679h4.999c0.821,0,1.214,0.321,1.214,1
			c0,0.179-0.036,0.357-0.107,0.607l-0.25,1.178c1.892-2.249,3.392-3.035,5.963-3.035c3.142,0,4.927,1.215,4.927,2.964
			c0,0.214-0.036,0.464-0.107,0.714l-3.392,13.89C129.952,254.761,129.917,255.011,129.917,255.189z"/>
		<path d="M139.739,247.584c-0.393,1.571-0.607,2.643-0.607,3.249c0,1.893,1.178,2.429,3.963,2.429c3.499,0,5.32-0.286,5.82-1.821
			h0.678c-0.357,2.285-0.821,3.784-1.464,4.428c-1.25,1.32-2.821,1.428-5.249,1.428h-0.393c-5.999,0-8.534-0.964-8.534-5.355
			c0-1.5,0.607-4.392,1.821-8.784c0.429-1.57,1.071-2.856,1.821-3.749c1.571-1.856,3.785-2.464,7.105-2.464
			c4.963,0,7.284,1.393,7.284,5.035c0,1.428-0.357,2.928-0.786,3.892c-0.571,1.25-1.178,1.714-2.642,1.714H139.739z
			 M147.202,242.835c0-1.535-0.857-2.249-2.642-2.249c-2.178,0-3.25,1.25-4.035,4.105h6.248
			C147.023,243.978,147.202,243.371,147.202,242.835z"/>
		<path d="M156.952,237.193c1.036,0,1.535,0.215,1.964,1.179l2.071,4.749l2.678-3.785c0.179-0.25,0.25-0.5,0.25-0.714
			c0-0.429-0.286-0.679-0.893-0.75l0.179-0.679h4.499c1.035,0,1.5,0.215,1.5,0.786c0,0.285-0.143,0.5-0.393,0.785l-6.105,7.677
			l3.892,8.284c0.464,0.999,1.107,1.499,2.106,1.57l-0.143,0.679h-4.749c-1.143,0-1.714-0.214-2.143-1.214l-2.642-5.892
			l-3.356,4.749c-0.25,0.356-0.428,0.679-0.428,0.929c0,0.428,0.321,0.643,0.964,0.749l-0.214,0.679h-5.177
			c-0.785,0-1.143-0.143-1.143-0.643c0-0.357,0.214-0.607,0.5-0.964l7.249-8.962l-3.321-6.928c-0.429-0.893-0.928-1.393-1.857-1.606
			l0.107-0.679H156.952z"/>
		<path d="M183.485,237.193c2.785,0,4.213,1.143,4.213,3.356c0,0.679-0.143,1.25-0.285,1.821l-2.75,11.604
			c-0.107,0.5-0.25,0.928-0.25,1.321c0,0.571,0.393,0.893,1.107,0.999l-0.179,0.679h-4.499c-1.178,0-1.714-0.357-1.714-1.214
			c0-0.357,0.106-0.857,0.286-1.571c-1.072,1.464-1.679,2.393-2.143,2.678c-0.465,0.25-1.535,0.429-3.25,0.429
			c-3.213,0-4.82-1.643-4.82-4.713c0-5.249,2.713-8.748,6.641-8.748h4.534c1.357,0,1.965-0.5,1.965-1.856
			c0-0.857-0.429-1.179-1.429-1.179h-4.892c-1.25,0-1.75-0.356-1.75-1.464c0-0.571,0.107-1.285,0.357-2.143H183.485z
			 M174.272,251.262c0,1.714,0.929,2.035,3.178,2.035c0.786,0,1.5-0.035,2.179-0.143l1.535-6.178h-3.178
			C175.629,246.977,174.272,248.655,174.272,251.262z M187.912,230.017c-0.856,2.964-1.856,4.285-3.856,4.285
			c-0.428,0-0.928-0.071-1.463-0.215l-1.857-0.535c-0.393-0.107-0.75-0.143-1-0.143c-0.82,0-1.463,0.5-1.785,1.499h-1.749
			c1.071-2.999,1.785-4.32,3.82-4.32c0.393,0,0.856,0.071,1.356,0.215l1.857,0.5c0.535,0.143,0.893,0.214,1.07,0.214
			c0.893,0,1.5-0.5,1.857-1.5H187.912z"/>
		<path d="M188.593,248.405c0.964-4.534,2.035-7.319,2.749-8.284c1.929-2.57,4-3.178,7.498-3.178c5.249,0,7.998,1.893,7.998,4.785
			c0,1.82-0.428,3.642-0.928,5.642c-0.535,2.214-1,4.142-1.821,5.784c-1.642,3.32-4.07,4.142-8.427,4.142
			c-4.998,0-7.676-2.035-7.676-5.034C187.987,251.619,188.201,250.298,188.593,248.405z M198.734,240.657
			c-1.999,0-2.929,1.071-3.642,3.214c-1.357,4.105-1.679,6.748-1.679,7.069c0,1.643,1.071,2.643,2.892,2.643
			c1.893,0,2.821-1.071,3.535-3.214c1.285-3.892,1.678-6.498,1.678-7.177C201.518,241.586,200.519,240.657,198.734,240.657z"/>
		<path d="M228.837,237.193l-0.606,2.464c-0.25,1-0.857,1.214-2.107,1.214h-1.999c-1.499,0-2.464,0.536-3.214,1.714
			c-0.25,0.429-0.606,1.25-0.928,2.464c-0.821,2.964-1.393,5.034-1.393,6.32c0,1.143,0.893,1.928,2.499,1.928h2.429
			c1.892,0,2.963-0.5,3.428-1.714l0.713,0.036l-0.785,3.32c-0.357,1.571-1.57,2.035-3.963,2.035h-4.678
			c-3.285,0-4.998-1.464-4.998-4.356c0-0.678,0.106-1.535,0.356-2.606c0.893-3.855,1.643-6.891,2.642-9.033
			c1.143-2.428,3.393-3.785,6.499-3.785H228.837z"/>
		<path d="M229.912,248.405c0.964-4.534,2.035-7.319,2.749-8.284c1.929-2.57,4-3.178,7.498-3.178c5.249,0,7.998,1.893,7.998,4.785
			c0,1.82-0.428,3.642-0.928,5.642c-0.535,2.214-1,4.142-1.821,5.784c-1.642,3.32-4.07,4.142-8.427,4.142
			c-4.998,0-7.676-2.035-7.676-5.034C229.305,251.619,229.519,250.298,229.912,248.405z M240.052,240.657
			c-1.999,0-2.929,1.071-3.642,3.214c-1.357,4.105-1.679,6.748-1.679,7.069c0,1.643,1.071,2.643,2.892,2.643
			c1.893,0,2.821-1.071,3.535-3.214c1.285-3.892,1.678-6.498,1.678-7.177C242.836,241.586,241.837,240.657,240.052,240.657z"/>
		<path d="M273.405,236.943c3.213,0,4.927,1.286,4.927,3.321c0,0.535-0.071,1.143-0.249,1.82l-3.143,12.497
			c-0.072,0.357-0.143,0.607-0.143,0.786c0,0.606,0.464,0.928,1.213,0.928l-0.178,0.679h-4.785c-0.856,0-1.32-0.429-1.32-1.143
			c0-0.179,0-0.393,0.071-0.643l2.892-11.641c0.179-0.749,0.286-1.249,0.286-1.499c0-0.857-0.75-1.464-1.999-1.464
			c-2.215,0-3.428,1-4,3.178l-2.785,10.818c-0.07,0.357-0.143,0.607-0.143,0.786c0,0.571,0.429,0.928,1.143,0.928l-0.143,0.679
			h-4.713c-0.857,0-1.357-0.393-1.357-1.143c0-0.179,0.036-0.393,0.107-0.643l2.856-11.641c0.144-0.535,0.25-1.035,0.25-1.428
			c0-0.929-0.786-1.535-2.106-1.535c-2.071,0-3.356,1.106-3.893,3.285l-2.605,10.711c-0.072,0.357-0.107,0.607-0.107,0.786
			c0,0.571,0.428,0.928,1.178,0.928l-0.143,0.679h-4.963c-0.785,0-1.214-0.464-1.214-1.214c0-0.143,0.036-0.357,0.071-0.536
			l3.713-15.71c0.036-0.179,0.072-0.321,0.072-0.464c0-0.643-0.429-1.071-1.215-1.179l0.143-0.679h5.32c0.643,0,1,0.357,1,0.965
			c0,0.106,0,0.25-0.035,0.393l-0.286,1.356c1.821-2.428,3.428-2.964,6.142-2.964c2.856,0,4.285,0.821,4.57,2.714
			C268.977,237.872,270.655,236.943,273.405,236.943z"/>
		<path d="M286.336,248.405c0.964-4.534,2.035-7.319,2.749-8.284c1.928-2.57,3.999-3.178,7.498-3.178
			c5.249,0,7.998,1.893,7.998,4.785c0,1.82-0.429,3.642-0.929,5.642c-0.535,2.214-1,4.142-1.82,5.784
			c-1.643,3.32-4.07,4.142-8.427,4.142c-4.999,0-7.677-2.035-7.677-5.034C285.729,251.619,285.944,250.298,286.336,248.405z
			 M296.477,240.657c-2,0-2.929,1.071-3.643,3.214c-1.357,4.105-1.678,6.748-1.678,7.069c0,1.643,1.07,2.643,2.892,2.643
			c1.893,0,2.821-1.071,3.535-3.214c1.285-3.892,1.678-6.498,1.678-7.177C299.261,241.586,298.262,240.657,296.477,240.657z"/>
		<path d="M338.079,236.943c3.213,0,4.927,1.286,4.927,3.321c0,0.535-0.071,1.143-0.249,1.82l-3.143,12.497
			c-0.072,0.357-0.143,0.607-0.143,0.786c0,0.606,0.464,0.928,1.213,0.928l-0.178,0.679h-4.785c-0.856,0-1.32-0.429-1.32-1.143
			c0-0.179,0-0.393,0.071-0.643l2.892-11.641c0.179-0.749,0.286-1.249,0.286-1.499c0-0.857-0.75-1.464-1.999-1.464
			c-2.215,0-3.428,1-4,3.178l-2.785,10.818c-0.07,0.357-0.143,0.607-0.143,0.786c0,0.571,0.429,0.928,1.143,0.928l-0.143,0.679
			h-4.713c-0.857,0-1.357-0.393-1.357-1.143c0-0.179,0.036-0.393,0.107-0.643l2.856-11.641c0.144-0.535,0.25-1.035,0.25-1.428
			c0-0.929-0.786-1.535-2.106-1.535c-2.071,0-3.356,1.106-3.893,3.285l-2.605,10.711c-0.072,0.357-0.107,0.607-0.107,0.786
			c0,0.571,0.428,0.928,1.178,0.928l-0.143,0.679h-4.963c-0.785,0-1.214-0.464-1.214-1.214c0-0.143,0.036-0.357,0.071-0.536
			l3.713-15.71c0.036-0.179,0.072-0.321,0.072-0.464c0-0.643-0.429-1.071-1.215-1.179l0.143-0.679h5.32c0.643,0,1,0.357,1,0.965
			c0,0.106,0,0.25-0.035,0.393l-0.286,1.356c1.821-2.428,3.428-2.964,6.142-2.964c2.856,0,4.285,0.821,4.57,2.714
			C333.651,237.872,335.329,236.943,338.079,236.943z"/>
		<path d="M350.794,237.193c0.856,0,1.321,0.429,1.321,1.143c0,0.179-0.035,0.394-0.107,0.643l-2.963,12.426
			c-0.036,0.215-0.072,0.429-0.072,0.607c0,1.035,0.715,1.606,2.143,1.606c2.107,0,3.606-1.035,3.999-2.642l2.856-11.391
			c0.072-0.321,0.107-0.571,0.107-0.75c0-0.606-0.357-0.964-1.071-0.964l0.143-0.679h4.856c0.75,0,1.214,0.465,1.214,1.179
			c0,0.214-0.036,0.464-0.107,0.785l-3.678,15.425c-0.071,0.286-0.106,0.536-0.106,0.75c0,0.536,0.32,0.785,1.106,0.964
			l-0.179,0.679h-5.105c-0.785,0-1.179-0.285-1.179-1c0-0.285,0.107-0.821,0.286-1.643c-1.679,2-3.25,2.964-5.642,2.964
			c-3.428,0-5.178-1.179-5.178-2.999c0-0.286,0.036-0.571,0.107-0.857l3.32-13.782c0.071-0.285,0.071-0.535,0.071-0.75
			c0-0.606-0.428-0.999-1.178-1.035l0.143-0.679H350.794z"/>
		<path d="M379.005,255.189c0,0.714,0.429,1.071,1.25,1.106l-0.107,0.679h-4.892c-0.857,0-1.321-0.464-1.321-1.179
			c0-0.178,0-0.356,0.071-0.606l3-12.318c0.071-0.25,0.071-0.5,0.071-0.714c0-1.036-0.714-1.571-2.249-1.571
			c-2.072,0-3.464,1.035-3.857,2.606l-2.749,11.39c-0.071,0.321-0.143,0.571-0.143,0.75c0,0.607,0.429,0.964,1.143,0.964
			l-0.106,0.679h-5c-0.749,0-1.213-0.429-1.213-1.179c0-0.214,0.035-0.464,0.106-0.749l3.678-15.461
			c0.071-0.321,0.107-0.571,0.107-0.75c0-0.535-0.394-0.821-1.143-0.964l0.214-0.679h4.999c0.821,0,1.214,0.321,1.214,1
			c0,0.179-0.035,0.357-0.107,0.607l-0.25,1.178c1.893-2.249,3.393-3.035,5.963-3.035c3.143,0,4.928,1.215,4.928,2.964
			c0,0.214-0.035,0.464-0.107,0.714l-3.392,13.89C379.042,254.761,379.005,255.011,379.005,255.189z"/>
		<path d="M401.79,232.23c0.964,0,1.463,0.393,1.463,1.107c0,0.143-0.035,0.393-0.106,0.678l-4.927,20.424
			c-0.107,0.393-0.144,0.714-0.144,0.964c0,0.465,0.464,0.786,1.393,0.893l-0.179,0.679h-4.892c-0.821,0-1.249-0.429-1.249-1.214
			c0-0.214,0.035-0.536,0.106-0.964l-1.606,1.714c-0.715,0.749-1.857,0.785-3.749,0.785c-3.392,0-4.999-1.285-4.999-4.178
			c0-1.571,0.429-3.499,1.035-5.927c0.715-2.821,1.357-4.856,1.929-6.177c0.464-1.071,1.249-1.964,2.071-2.5
			c1.928-1.214,3.927-1.321,6.141-1.321h3.356l0.571-2.499c0.035-0.179,0.071-0.393,0.071-0.571c0-0.714-0.286-1-1.143-1.214
			l0.144-0.679H401.79z M395.327,240.836c-2.714,0-4.356,0.678-4.999,2.285c-1.429,3.499-1.964,6.819-1.964,8.069
			c0,1.571,0.785,2.249,2.75,2.249c1.892,0,2.605-0.856,3.142-3.106l2.285-9.462C396.112,240.836,395.719,240.836,395.327,240.836z"
			/>
		<path d="M402.934,248.405c0.965-4.534,2.035-7.319,2.75-8.284c1.928-2.57,3.999-3.178,7.498-3.178
			c5.248,0,7.998,1.893,7.998,4.785c0,1.82-0.429,3.642-0.928,5.642c-0.536,2.214-1,4.142-1.822,5.784
			c-1.642,3.32-4.07,4.142-8.426,4.142c-4.999,0-7.677-2.035-7.677-5.034C402.328,251.619,402.542,250.298,402.934,248.405z
			 M413.075,240.657c-1.999,0-2.928,1.071-3.642,3.214c-1.356,4.105-1.679,6.748-1.679,7.069c0,1.643,1.072,2.643,2.893,2.643
			c1.893,0,2.82-1.071,3.535-3.214c1.285-3.892,1.678-6.498,1.678-7.177C415.86,241.586,414.86,240.657,413.075,240.657z"/>
	</g>
	<path fill-rule="evenodd" clip-rule="evenodd" fill="#43BCE4" d="M422.392,51.696c-2.043-4.497-5.521-7.852-10.011-10.416
		c-18.64-10.646-39.367-16.101-60.664-20.138c-3.992,0.145-7.538-1.594-11.346-2.209c-11.037-1.783-22.091-3.486-33.138-5.219
		c-7.417-1.166-14.987-0.117-22.425-1.348c-2.243-0.369-4.742-0.705-6.964,0.525l0,0c-0.181-0.622-0.537-1.133-1.317-1.123
		c-8.026,0.104-16.072-0.645-24.078,0.43c-0.525,0.026-1.057,0.059-1.587,0.064c-10.403,0.208-10.575,0.217-11.142-9.383
		c-0.2-3.435-1.045-3.477-3.895-1.8c-16.014,9.441-31.643,19.378-46.92,29.768c-4.795,3.264-9.468,6.677-14.566,10.28
		c1.23,0.473,1.809,0.737,2.418,0.922c11.533,3.542,23.065,7.078,34.604,10.604c10.64,3.251,21.308,6.42,31.907,9.771
		c2.672,0.848,3.268,0.365,2.865-2.098c-0.443-2.73-0.305-5.547-0.852-8.26c-0.621-3.079,0.762-4.102,3.902-4.248
		c4.229-0.193,8.443-0.589,12.665-0.903c6.835-0.421,13.667-0.948,20.511-1.239c16.24-0.699,32.422,0.586,48.617,1.398
		c1.227,1.016,2.885,0.418,4.248,0.926c9.917,0.498,19.604,2.373,29.291,4.164c16.341,3.027,32.195,7.553,47.62,13.313
		c0.716,0.27,1.334,0.758,1.997,1.146c6.207,1.723,11.537,4.818,16.399,8.651C429.543,66.926,425.87,59.34,422.392,51.696z"/>
	<path fill-rule="evenodd" clip-rule="evenodd" fill="#227AB8" d="M221.212,154.941c-3.056-0.726-3.937-1.149-4.739-1.379
		c-0.551-0.179-1.102-0.356-1.655-0.538c-1.829-0.537-3.661-1.071-5.494-1.612c-0.485-0.088-0.968-0.172-1.454-0.259
		c-0.527-0.22-1.059-0.44-1.586-0.667c-0.689-0.716-1.645-0.541-2.525-0.609c-1.955-1.078-4.141-1.554-6.346-1.968
		c-0.499-0.123-0.998-0.246-1.492-0.372c-0.561-0.205-1.117-0.408-1.675-0.615c-0.663-0.67-1.587-0.521-2.425-0.639
		c-4.688-1.79-4.656-1.793-4.209,2.623c0.197,1.91-0.091,3.914,0.424,5.74c1.027,3.655-1.007,4.523-4.367,4.743
		c-6.035,0.392-12.061,0.907-18.092,1.37c-1.849-0.014-3.704-0.127-5.543-0.026c-15.317,0.842-30.645,0.938-45.93-0.185
		c-6.142-0.447-12.368,0.01-18.432-1.291c-1.962-1.367-4.565,0.035-6.543-1.25c-16.156-1.302-31.814-4.766-47.277-9.043
		c-8.609-2.377-17.127-5.006-25.264-8.555c-6.123-1.852-11.345-5.102-16.354-8.689c1.191,7.424,4.257,14.316,7.087,21.301
		c2.824,6.964,8.208,11.598,15.256,14.941c19.769,9.377,40.947,14.826,62.714,18.64c4.782,0.806,9.587,1.513,14.34,2.435
		c6.016,1.169,12.248,1.143,18.157,2.84c2.241,0.113,4.488,0.146,6.712,0.359c13.653,1.314,27.281,2.946,41.061,2.444
		c8.327,0.677,16.667,0.854,24.998,0.294c2.179-0.145,2.749,0.506,2.933,2.307c0.285,2.748,1.069,5.461,1.26,8.207
		c0.211,3.008,0.897,3.432,3.85,1.66c13.152-7.899,25.756-16.496,38.51-24.891c7.566-4.982,14.776-10.416,22.566-15.939
		C246.706,161.652,233.61,159.26,221.212,154.941z"/>
</g>
</svg>
