<?xml version="1.0" encoding="utf-8"?>
<!-- Generator: Adobe Illustrator 16.0.0, SVG Export Plug-In . SVG Version: 6.00 Build 0)  -->
<!DOCTYPE svg PUBLIC "-//W3C//DTD SVG 1.1//EN" "http://www.w3.org/Graphics/SVG/1.1/DTD/svg11.dtd">
<svg version="1.1" id="Layer_1" xmlns="http://www.w3.org/2000/svg" xmlns:xlink="http://www.w3.org/1999/xlink" x="0px" y="0px"
	 width="437.205px" height="276.741px" viewBox="0 0 437.205 276.741" enable-background="new 0 0 437.205 276.741"
	 xml:space="preserve">
<g>
	<g>
		<path fill="#227AB8" d="M436.205,75.275c-4.863-3.833-10.192-6.929-16.399-8.651c-3.652,6.184-10.082,9.474-16.515,12.514
			c-4.407,2.082-8.904,3.94-13.466,5.652l6.521,16.889c5.465-1.732,10.872-3.656,16.185-5.848
			c8.026-3.313,15.373-7.541,21.142-13.744C435.505,80.125,437.186,78.104,436.205,75.275z"/>
	</g>
	<g>
		<path fill="#227AB8" d="M29.033,120.39c-9.962,3.756-19.407,8.316-26.41,16.13c-1.709,1.907-3.218,3.868-2.389,6.54
			c5.009,3.588,10.231,6.838,16.354,8.689c5.125-7.56,13.453-11.338,21.803-14.938c2.697-1.162,5.442-2.221,8.201-3.237
			l-1.097-18.497C39.941,116.649,34.43,118.356,29.033,120.39z"/>
	</g>
	<g>
		<path d="M32.281,243.569l-0.535,2.535c-0.214,1-0.75,1.464-1.714,1.464h-4.106c-1.785,0-2.963,1.25-2.963,3.178
			c0,0.786,0.571,1.286,1.678,1.821l3.713,1.785c2.035,0.964,2.928,2.428,2.928,4.713c0,5.82-2.963,9.248-8.355,9.248h-5.213
			c-2.25,0-3.356-0.179-3.356-1.393c0-0.179,0.036-0.393,0.071-0.643l0.75-3.214h0.643c0.071,1.107,0.571,1.429,1.821,1.429h4.178
			c2.713,0,4.427-1.893,4.427-4.392c0-1-0.5-1.607-1.643-2.107l-4.284-1.892c-1.678-0.75-2.393-1.964-2.393-4.07
			c0-5.249,2.642-8.463,7.034-8.463H32.281z"/>
		<path d="M39.746,248.532c0.857,0,1.321,0.429,1.321,1.143c0,0.179-0.036,0.394-0.107,0.643l-2.964,12.426
			c-0.036,0.215-0.071,0.429-0.071,0.607c0,1.035,0.714,1.606,2.142,1.606c2.107,0,3.606-1.035,3.999-2.642l2.856-11.391
			c0.072-0.321,0.107-0.571,0.107-0.75c0-0.606-0.357-0.964-1.071-0.964l0.143-0.679h4.855c0.75,0,1.214,0.465,1.214,1.179
			c0,0.214-0.036,0.464-0.107,0.785l-3.677,15.425c-0.072,0.286-0.107,0.536-0.107,0.75c0,0.536,0.321,0.785,1.107,0.964
			l-0.179,0.679h-5.106c-0.785,0-1.178-0.285-1.178-1c0-0.285,0.107-0.821,0.286-1.643c-1.678,2-3.249,2.964-5.641,2.964
			c-3.428,0-5.177-1.179-5.177-2.999c0-0.286,0.036-0.571,0.107-0.857l3.321-13.782c0.071-0.285,0.071-0.535,0.071-0.75
			c0-0.606-0.429-0.999-1.178-1.035l0.143-0.679H39.746z"/>
		<path d="M66.172,248.532c2.785,0,4.213,1.143,4.213,3.356c0,0.679-0.143,1.25-0.286,1.821l-2.75,11.604
			c-0.107,0.5-0.25,0.928-0.25,1.321c0,0.571,0.393,0.893,1.107,0.999l-0.178,0.679H63.53c-1.178,0-1.714-0.357-1.714-1.214
			c0-0.357,0.107-0.857,0.286-1.571c-1.071,1.464-1.678,2.393-2.143,2.678c-0.464,0.25-1.535,0.429-3.249,0.429
			c-3.213,0-4.82-1.643-4.82-4.713c0-5.249,2.713-8.748,6.641-8.748h4.535c1.357,0,1.964-0.5,1.964-1.856
			c0-0.857-0.428-1.179-1.428-1.179h-4.892c-1.25,0-1.75-0.356-1.75-1.464c0-0.571,0.107-1.285,0.357-2.143H66.172z M56.96,262.601
			c0,1.714,0.928,2.035,3.178,2.035c0.786,0,1.5-0.035,2.178-0.143l1.535-6.178h-3.178C58.317,258.315,56.96,259.994,56.96,262.601z
			"/>
		<path d="M94.491,248.532l-0.607,2.464c-0.25,1-0.857,1.214-2.106,1.214h-2c-1.5,0-2.464,0.536-3.213,1.714
			c-0.25,0.429-0.607,1.25-0.929,2.464c-0.821,2.964-1.392,5.034-1.392,6.32c0,1.143,0.893,1.928,2.499,1.928h2.428
			c1.893,0,2.963-0.5,3.428-1.714l0.714,0.036l-0.785,3.32c-0.357,1.571-1.571,2.035-3.963,2.035h-4.678
			c-3.285,0-4.999-1.464-4.999-4.356c0-0.678,0.107-1.535,0.357-2.606c0.893-3.855,1.643-6.891,2.642-9.033
			c1.143-2.428,3.392-3.785,6.499-3.785H94.491z"/>
		<path d="M95.564,259.744c0.964-4.534,2.035-7.319,2.75-8.284c1.928-2.57,3.999-3.178,7.498-3.178c5.249,0,7.998,1.893,7.998,4.785
			c0,1.82-0.429,3.642-0.928,5.642c-0.536,2.214-1,4.142-1.821,5.784c-1.642,3.32-4.07,4.142-8.426,4.142
			c-4.999,0-7.677-2.035-7.677-5.034C94.958,262.958,95.172,261.637,95.564,259.744z M105.705,251.996c-2,0-2.928,1.071-3.642,3.214
			c-1.357,4.105-1.678,6.748-1.678,7.069c0,1.643,1.071,2.643,2.892,2.643c1.893,0,2.821-1.071,3.535-3.214
			c1.285-3.892,1.678-6.498,1.678-7.177C108.49,252.925,107.49,251.996,105.705,251.996z"/>
		<path d="M129.917,266.528c0,0.714,0.429,1.071,1.25,1.106l-0.107,0.679h-4.892c-0.857,0-1.321-0.464-1.321-1.179
			c0-0.178,0-0.356,0.072-0.606l2.999-12.318c0.072-0.25,0.072-0.5,0.072-0.714c0-1.036-0.714-1.571-2.25-1.571
			c-2.071,0-3.463,1.035-3.856,2.606l-2.75,11.39c-0.071,0.321-0.143,0.571-0.143,0.75c0,0.607,0.429,0.964,1.143,0.964
			l-0.107,0.679h-4.999c-0.75,0-1.214-0.429-1.214-1.179c0-0.214,0.036-0.464,0.107-0.749l3.678-15.461
			c0.071-0.321,0.107-0.571,0.107-0.75c0-0.535-0.393-0.821-1.143-0.964l0.214-0.679h4.999c0.821,0,1.214,0.321,1.214,1
			c0,0.179-0.036,0.357-0.107,0.607l-0.25,1.178c1.892-2.249,3.392-3.035,5.963-3.035c3.142,0,4.927,1.215,4.927,2.964
			c0,0.214-0.036,0.464-0.107,0.714l-3.392,13.89C129.952,266.1,129.917,266.35,129.917,266.528z"/>
		<path d="M139.739,258.923c-0.393,1.571-0.607,2.643-0.607,3.249c0,1.893,1.178,2.429,3.963,2.429c3.499,0,5.32-0.286,5.82-1.821
			h0.678c-0.357,2.285-0.821,3.784-1.464,4.428c-1.25,1.32-2.821,1.428-5.249,1.428h-0.393c-5.999,0-8.534-0.964-8.534-5.355
			c0-1.5,0.607-4.392,1.821-8.784c0.429-1.57,1.071-2.856,1.821-3.749c1.571-1.856,3.785-2.464,7.105-2.464
			c4.963,0,7.284,1.393,7.284,5.035c0,1.428-0.357,2.928-0.786,3.892c-0.571,1.25-1.178,1.714-2.642,1.714H139.739z
			 M147.202,254.174c0-1.535-0.857-2.249-2.642-2.249c-2.178,0-3.25,1.25-4.035,4.105h6.248
			C147.023,255.316,147.202,254.71,147.202,254.174z"/>
		<path d="M156.952,248.532c1.036,0,1.535,0.215,1.964,1.179l2.071,4.749l2.678-3.785c0.179-0.25,0.25-0.5,0.25-0.714
			c0-0.429-0.286-0.679-0.893-0.75l0.179-0.679h4.499c1.035,0,1.5,0.215,1.5,0.786c0,0.285-0.143,0.5-0.393,0.785l-6.105,7.677
			l3.892,8.284c0.464,0.999,1.107,1.499,2.106,1.57l-0.143,0.679h-4.749c-1.143,0-1.714-0.214-2.143-1.214l-2.642-5.892
			l-3.356,4.749c-0.25,0.356-0.428,0.679-0.428,0.929c0,0.428,0.321,0.643,0.964,0.749l-0.214,0.679h-5.177
			c-0.785,0-1.143-0.143-1.143-0.643c0-0.357,0.214-0.607,0.5-0.964l7.249-8.962l-3.321-6.928c-0.429-0.893-0.928-1.393-1.857-1.606
			l0.107-0.679H156.952z"/>
		<path d="M183.484,248.532c2.785,0,4.213,1.143,4.213,3.356c0,0.679-0.143,1.25-0.286,1.821l-2.75,11.604
			c-0.107,0.5-0.25,0.928-0.25,1.321c0,0.571,0.393,0.893,1.107,0.999l-0.178,0.679h-4.499c-1.178,0-1.714-0.357-1.714-1.214
			c0-0.357,0.107-0.857,0.286-1.571c-1.071,1.464-1.678,2.393-2.143,2.678c-0.464,0.25-1.535,0.429-3.249,0.429
			c-3.213,0-4.82-1.643-4.82-4.713c0-5.249,2.713-8.748,6.641-8.748h4.535c1.357,0,1.964-0.5,1.964-1.856
			c0-0.857-0.428-1.179-1.428-1.179h-4.892c-1.25,0-1.75-0.356-1.75-1.464c0-0.571,0.107-1.285,0.357-2.143H183.484z
			 M174.272,262.601c0,1.714,0.928,2.035,3.178,2.035c0.786,0,1.5-0.035,2.178-0.143l1.535-6.178h-3.178
			C175.629,258.315,174.272,259.994,174.272,262.601z M187.912,241.355c-0.856,2.964-1.856,4.285-3.856,4.285
			c-0.428,0-0.928-0.071-1.464-0.215l-1.857-0.535c-0.393-0.107-0.75-0.143-1-0.143c-0.821,0-1.464,0.5-1.785,1.499h-1.75
			c1.071-2.999,1.785-4.32,3.82-4.32c0.393,0,0.857,0.071,1.357,0.215l1.856,0.5c0.536,0.143,0.893,0.214,1.071,0.214
			c0.893,0,1.5-0.5,1.856-1.5H187.912z"/>
		<path d="M188.593,259.744c0.964-4.534,2.035-7.319,2.75-8.284c1.928-2.57,3.999-3.178,7.498-3.178
			c5.249,0,7.998,1.893,7.998,4.785c0,1.82-0.428,3.642-0.928,5.642c-0.536,2.214-1,4.142-1.821,5.784
			c-1.642,3.32-4.07,4.142-8.426,4.142c-4.999,0-7.677-2.035-7.677-5.034C187.986,262.958,188.201,261.637,188.593,259.744z
			 M198.734,251.996c-2,0-2.928,1.071-3.642,3.214c-1.357,4.105-1.678,6.748-1.678,7.069c0,1.643,1.071,2.643,2.892,2.643
			c1.893,0,2.821-1.071,3.535-3.214c1.286-3.892,1.678-6.498,1.678-7.177C201.519,252.925,200.519,251.996,198.734,251.996z"/>
		<path d="M228.837,248.532l-0.607,2.464c-0.25,1-0.857,1.214-2.106,1.214h-2c-1.5,0-2.464,0.536-3.213,1.714
			c-0.25,0.429-0.607,1.25-0.928,2.464c-0.821,2.964-1.393,5.034-1.393,6.32c0,1.143,0.893,1.928,2.499,1.928h2.428
			c1.892,0,2.963-0.5,3.428-1.714l0.714,0.036l-0.785,3.32c-0.357,1.571-1.571,2.035-3.963,2.035h-4.678
			c-3.285,0-4.999-1.464-4.999-4.356c0-0.678,0.107-1.535,0.357-2.606c0.893-3.855,1.643-6.891,2.642-9.033
			c1.143-2.428,3.392-3.785,6.499-3.785H228.837z"/>
		<path d="M229.912,259.744c0.964-4.534,2.035-7.319,2.75-8.284c1.928-2.57,3.999-3.178,7.498-3.178
			c5.249,0,7.998,1.893,7.998,4.785c0,1.82-0.428,3.642-0.928,5.642c-0.536,2.214-1,4.142-1.821,5.784
			c-1.642,3.32-4.07,4.142-8.426,4.142c-4.999,0-7.677-2.035-7.677-5.034C229.305,262.958,229.519,261.637,229.912,259.744z
			 M240.052,251.996c-2,0-2.928,1.071-3.642,3.214c-1.357,4.105-1.678,6.748-1.678,7.069c0,1.643,1.071,2.643,2.892,2.643
			c1.893,0,2.821-1.071,3.535-3.214c1.286-3.892,1.678-6.498,1.678-7.177C242.837,252.925,241.837,251.996,240.052,251.996z"/>
		<path d="M273.404,248.282c3.213,0,4.927,1.286,4.927,3.321c0,0.535-0.071,1.143-0.25,1.82l-3.142,12.497
			c-0.072,0.357-0.143,0.607-0.143,0.786c0,0.606,0.464,0.928,1.214,0.928l-0.178,0.679h-4.785c-0.857,0-1.321-0.429-1.321-1.143
			c0-0.179,0-0.393,0.072-0.643l2.892-11.641c0.178-0.749,0.286-1.249,0.286-1.499c0-0.857-0.75-1.464-2-1.464
			c-2.214,0-3.428,1-3.999,3.178l-2.785,10.818c-0.071,0.357-0.143,0.607-0.143,0.786c0,0.571,0.429,0.928,1.143,0.928l-0.143,0.679
			h-4.713c-0.857,0-1.357-0.393-1.357-1.143c0-0.179,0.036-0.393,0.107-0.643l2.856-11.641c0.143-0.535,0.25-1.035,0.25-1.428
			c0-0.929-0.786-1.535-2.106-1.535c-2.071,0-3.356,1.106-3.892,3.285l-2.606,10.711c-0.071,0.357-0.107,0.607-0.107,0.786
			c0,0.571,0.428,0.928,1.178,0.928l-0.143,0.679h-4.963c-0.786,0-1.214-0.464-1.214-1.214c0-0.143,0.036-0.357,0.071-0.536
			l3.713-15.71c0.036-0.179,0.071-0.321,0.071-0.464c0-0.643-0.428-1.071-1.214-1.179l0.143-0.679h5.32c0.643,0,1,0.357,1,0.965
			c0,0.106,0,0.25-0.036,0.393l-0.286,1.356c1.821-2.428,3.428-2.964,6.142-2.964c2.856,0,4.285,0.821,4.57,2.714
			C268.977,249.211,270.655,248.282,273.404,248.282z"/>
		<path d="M286.336,259.744c0.964-4.534,2.035-7.319,2.75-8.284c1.928-2.57,3.999-3.178,7.498-3.178
			c5.249,0,7.998,1.893,7.998,4.785c0,1.82-0.429,3.642-0.928,5.642c-0.536,2.214-1,4.142-1.821,5.784
			c-1.642,3.32-4.07,4.142-8.426,4.142c-4.999,0-7.677-2.035-7.677-5.034C285.729,262.958,285.943,261.637,286.336,259.744z
			 M296.477,251.996c-2,0-2.928,1.071-3.642,3.214c-1.357,4.105-1.678,6.748-1.678,7.069c0,1.643,1.071,2.643,2.892,2.643
			c1.893,0,2.821-1.071,3.535-3.214c1.285-3.892,1.678-6.498,1.678-7.177C299.261,252.925,298.262,251.996,296.477,251.996z"/>
		<path d="M338.078,248.282c3.213,0,4.927,1.286,4.927,3.321c0,0.535-0.071,1.143-0.25,1.82l-3.142,12.497
			c-0.072,0.357-0.143,0.607-0.143,0.786c0,0.606,0.464,0.928,1.214,0.928l-0.178,0.679h-4.785c-0.857,0-1.321-0.429-1.321-1.143
			c0-0.179,0-0.393,0.072-0.643l2.892-11.641c0.178-0.749,0.286-1.249,0.286-1.499c0-0.857-0.75-1.464-2-1.464
			c-2.214,0-3.428,1-3.999,3.178l-2.785,10.818c-0.071,0.357-0.143,0.607-0.143,0.786c0,0.571,0.429,0.928,1.143,0.928l-0.143,0.679
			h-4.713c-0.857,0-1.357-0.393-1.357-1.143c0-0.179,0.036-0.393,0.107-0.643l2.856-11.641c0.143-0.535,0.25-1.035,0.25-1.428
			c0-0.929-0.786-1.535-2.106-1.535c-2.071,0-3.356,1.106-3.892,3.285l-2.606,10.711c-0.071,0.357-0.107,0.607-0.107,0.786
			c0,0.571,0.428,0.928,1.178,0.928l-0.143,0.679h-4.963c-0.786,0-1.214-0.464-1.214-1.214c0-0.143,0.036-0.357,0.071-0.536
			l3.713-15.71c0.036-0.179,0.071-0.321,0.071-0.464c0-0.643-0.428-1.071-1.214-1.179l0.143-0.679h5.32c0.643,0,1,0.357,1,0.965
			c0,0.106,0,0.25-0.036,0.393l-0.286,1.356c1.821-2.428,3.428-2.964,6.142-2.964c2.856,0,4.285,0.821,4.57,2.714
			C333.651,249.211,335.329,248.282,338.078,248.282z"/>
		<path d="M350.794,248.532c0.857,0,1.321,0.429,1.321,1.143c0,0.179-0.036,0.394-0.107,0.643l-2.963,12.426
			c-0.036,0.215-0.071,0.429-0.071,0.607c0,1.035,0.714,1.606,2.142,1.606c2.107,0,3.606-1.035,3.999-2.642l2.856-11.391
			c0.072-0.321,0.107-0.571,0.107-0.75c0-0.606-0.357-0.964-1.071-0.964l0.143-0.679h4.856c0.75,0,1.214,0.465,1.214,1.179
			c0,0.214-0.036,0.464-0.107,0.785l-3.678,15.425c-0.071,0.286-0.107,0.536-0.107,0.75c0,0.536,0.321,0.785,1.107,0.964
			l-0.179,0.679h-5.105c-0.786,0-1.179-0.285-1.179-1c0-0.285,0.107-0.821,0.286-1.643c-1.678,2-3.249,2.964-5.641,2.964
			c-3.428,0-5.178-1.179-5.178-2.999c0-0.286,0.036-0.571,0.107-0.857l3.32-13.782c0.072-0.285,0.072-0.535,0.072-0.75
			c0-0.606-0.429-0.999-1.178-1.035l0.143-0.679H350.794z"/>
		<path d="M379.005,266.528c0,0.714,0.429,1.071,1.25,1.106l-0.107,0.679h-4.892c-0.857,0-1.321-0.464-1.321-1.179
			c0-0.178,0-0.356,0.072-0.606l2.999-12.318c0.072-0.25,0.072-0.5,0.072-0.714c0-1.036-0.714-1.571-2.25-1.571
			c-2.071,0-3.463,1.035-3.856,2.606l-2.75,11.39c-0.071,0.321-0.143,0.571-0.143,0.75c0,0.607,0.429,0.964,1.143,0.964
			l-0.107,0.679h-4.999c-0.75,0-1.214-0.429-1.214-1.179c0-0.214,0.036-0.464,0.107-0.749l3.678-15.461
			c0.071-0.321,0.107-0.571,0.107-0.75c0-0.535-0.393-0.821-1.143-0.964l0.214-0.679h4.999c0.821,0,1.214,0.321,1.214,1
			c0,0.179-0.036,0.357-0.107,0.607l-0.25,1.178c1.892-2.249,3.392-3.035,5.963-3.035c3.142,0,4.927,1.215,4.927,2.964
			c0,0.214-0.036,0.464-0.107,0.714l-3.392,13.89C379.041,266.1,379.005,266.35,379.005,266.528z"/>
		<path d="M401.789,243.569c0.964,0,1.464,0.393,1.464,1.107c0,0.143-0.036,0.393-0.107,0.678l-4.927,20.424
			c-0.107,0.393-0.143,0.714-0.143,0.964c0,0.465,0.464,0.786,1.393,0.893l-0.179,0.679h-4.892c-0.821,0-1.25-0.429-1.25-1.214
			c0-0.214,0.036-0.536,0.107-0.964l-1.606,1.714c-0.714,0.749-1.857,0.785-3.749,0.785c-3.392,0-4.999-1.285-4.999-4.178
			c0-1.571,0.429-3.499,1.036-5.927c0.714-2.821,1.357-4.856,1.928-6.177c0.464-1.071,1.25-1.964,2.071-2.5
			c1.928-1.214,3.927-1.321,6.141-1.321h3.356l0.571-2.499c0.036-0.179,0.071-0.393,0.071-0.571c0-0.714-0.286-1-1.143-1.214
			l0.143-0.679H401.789z M395.327,252.175c-2.714,0-4.356,0.678-4.999,2.285c-1.428,3.499-1.964,6.819-1.964,8.069
			c0,1.571,0.786,2.249,2.75,2.249c1.892,0,2.606-0.856,3.142-3.106l2.285-9.462C396.112,252.175,395.719,252.175,395.327,252.175z"
			/>
		<path d="M402.935,259.744c0.964-4.534,2.035-7.319,2.75-8.284c1.928-2.57,3.999-3.178,7.498-3.178
			c5.249,0,7.998,1.893,7.998,4.785c0,1.82-0.429,3.642-0.928,5.642c-0.536,2.214-1,4.142-1.821,5.784
			c-1.642,3.32-4.07,4.142-8.426,4.142c-4.999,0-7.677-2.035-7.677-5.034C402.328,262.958,402.542,261.637,402.935,259.744z
			 M413.075,251.996c-2,0-2.928,1.071-3.642,3.214c-1.357,4.105-1.678,6.748-1.678,7.069c0,1.643,1.071,2.643,2.892,2.643
			c1.893,0,2.821-1.071,3.535-3.214c1.285-3.892,1.678-6.498,1.678-7.177C415.86,252.925,414.86,251.996,413.075,251.996z"/>
	</g>
	<g>
		<path d="M41.845,54.321h37.978L58.072,135.47h51.777l-8.768,32.461H11.326L41.845,54.321z"/>
		<path d="M165.673,170.366c-8.004,0-15.308-1.166-21.906-3.49c-6.605-2.324-12.258-5.653-16.966-9.982
			c-4.701-4.325-8.385-9.547-11.034-15.66c-2.655-6.113-3.976-13.01-3.976-20.695c0-7.79,1.489-15.742,4.461-23.855
			c2.979-8.117,7.492-15.502,13.553-22.155s13.656-12.093,22.806-16.312c9.143-4.219,19.821-6.33,32.053-6.33
			c6.165,0,11.817,0.783,16.959,2.352c5.142,1.572,9.713,3.791,13.715,6.656c4.002,2.868,7.356,6.358,10.063,10.471
			c2.707,4.111,4.649,8.657,5.841,13.631l-33.918,14.77c-1.191-4.648-3.354-8.113-6.495-10.387
			c-3.134-2.272-6.871-3.408-11.196-3.408c-4.222,0-8.062,0.891-11.526,2.678s-6.411,4.137-8.845,7.058
			c-2.435,2.923-4.326,6.249-5.679,9.985c-1.353,3.729-2.027,7.543-2.027,11.441c0,6.275,1.703,11.092,5.109,14.443
			c3.413,3.357,7.654,5.031,12.744,5.031c4.436,0,8.437-1.025,12.012-3.086c3.568-2.052,6.922-4.973,10.063-8.76l26.29,20.772
			c-5.737,7.466-12.821,13.472-21.258,18.015C188.072,168.093,177.795,170.366,165.673,170.366z"/>
		<path d="M248.94,54.321h95.104l-8.761,32.461H278.15l-3.892,14.443h53.072l-7.952,29.537h-53.072l-9.901,37.168h-37.985
			L248.94,54.321z"/>
		<path d="M382.346,53.509H420l17.205,114.422h-40.413l-1.949-15.256h-39.765l-9.901,15.256h-41.384L382.346,53.509z
			 M392.732,125.731L389.65,98.14l-17.69,27.592H392.732z"/>
	</g>
	<path fill-rule="evenodd" clip-rule="evenodd" fill="#43BCE4" d="M428.062,51.695c-2.043-4.497-5.521-7.852-10.011-10.416
		c-18.64-10.646-39.367-16.101-60.665-20.138c-3.992,0.145-7.538-1.594-11.345-2.209c-11.037-1.783-22.091-3.486-33.138-5.219
		c-7.417-1.166-14.987-0.117-22.424-1.348c-2.244-0.369-4.743-0.705-6.964,0.525l0,0c-0.181-0.622-0.537-1.133-1.317-1.123
		c-8.026,0.104-16.072-0.645-24.079,0.43c-0.525,0.026-1.056,0.059-1.586,0.064c-10.403,0.208-10.575,0.217-11.141-9.383
		c-0.201-3.435-1.046-3.477-3.895-1.8c-16.014,9.441-31.642,19.378-46.92,29.768c-4.795,3.264-9.467,6.677-14.566,10.28
		c1.23,0.473,1.81,0.737,2.418,0.922c11.533,3.542,23.065,7.078,34.604,10.604c10.639,3.251,21.307,6.42,31.907,9.771
		c2.671,0.848,3.267,0.365,2.866-2.098c-0.444-2.73-0.305-5.547-0.852-8.26c-0.622-3.079,0.761-4.102,3.901-4.248
		c4.229-0.193,8.444-0.589,12.666-0.903c6.835-0.421,13.667-0.948,20.511-1.239c16.24-0.699,32.422,0.586,48.617,1.398
		c1.227,1.016,2.885,0.418,4.248,0.926c9.917,0.498,19.604,2.373,29.292,4.164c16.34,3.027,32.195,7.553,47.62,13.313
		c0.716,0.27,1.334,0.758,1.998,1.146c6.207,1.723,11.536,4.818,16.399,8.651C435.214,66.925,431.539,59.339,428.062,51.695z"/>
	<path fill-rule="evenodd" clip-rule="evenodd" fill="#227AB8" d="M221.212,166.28c-3.056-0.726-3.937-1.149-4.74-1.379
		c-0.55-0.179-1.101-0.356-1.655-0.538c-1.829-0.537-3.662-1.071-5.494-1.612c-0.486-0.088-0.968-0.172-1.454-0.259
		c-0.528-0.22-1.059-0.44-1.586-0.667c-0.69-0.716-1.645-0.541-2.525-0.609c-1.956-1.078-4.141-1.554-6.346-1.968
		c-0.499-0.123-0.997-0.246-1.492-0.372c-0.561-0.205-1.117-0.408-1.674-0.615c-0.664-0.67-1.586-0.521-2.425-0.639
		c-4.688-1.79-4.656-1.793-4.209,2.623c0.197,1.91-0.091,3.914,0.424,5.74c1.026,3.655-1.007,4.523-4.368,4.743
		c-6.035,0.392-12.061,0.907-18.092,1.37c-1.849-0.014-3.704-0.127-5.543-0.026c-15.317,0.842-30.645,0.938-45.93-0.185
		c-6.142-0.447-12.368,0.01-18.432-1.291c-1.962-1.367-4.565,0.035-6.543-1.25c-16.156-1.302-31.814-4.766-47.277-9.043
		c-8.609-2.377-17.127-5.006-25.264-8.555c-6.123-1.852-11.345-5.102-16.354-8.689c1.191,7.424,4.257,14.316,7.087,21.301
		c2.824,6.964,8.208,11.598,15.256,14.941c19.769,9.377,40.947,14.826,62.714,18.64c4.782,0.806,9.587,1.513,14.34,2.435
		c6.016,1.169,12.248,1.143,18.157,2.84c2.241,0.113,4.488,0.146,6.712,0.359c13.653,1.314,27.281,2.946,41.061,2.444
		c8.327,0.677,16.667,0.854,24.998,0.294c2.179-0.145,2.749,0.506,2.933,2.307c0.285,2.748,1.069,5.461,1.26,8.207
		c0.21,3.008,0.897,3.432,3.85,1.66c13.151-7.899,25.756-16.496,38.509-24.891c7.567-4.982,14.777-10.416,22.567-15.939
		C246.706,172.991,233.61,170.599,221.212,166.28z"/>
</g>
</svg>
